<svg xmlns="http://www.w3.org/2000/svg" viewBox="0 0 288.16 27.09" xml:space="preserve">
  <path d="M275.181 9.099c2.13-.1 4.46.77 3.97 3.39l-1.36 6.3h-3.1l.19-1.07c-1.65 1.74-5.91 1.65-5.23-2.23.48-2.33 2.81-3 6.3-3 .19-1.07-.48-1.26-1.65-1.26-1.02.1-2.03.33-3 .68l.29-2.23c1.18-.32 2.38-.52 3.59-.58zm.19 6.49c0-.29.1-.68.19-.58h-.78c-.68 0-1.55 0-1.94.58-.39.77.19 1.16.87 1.16.79-.09 1.47-.38 1.66-1.16zm6.4-9.4h3.2l-2.62 12.6h-3.1l2.52-12.6zm-14.44 0c1.65 0 3.68 2.13 3.2 4.94-.41 2.27-2.44 3.89-4.75 3.78h-2.42l-.87 3.88h-3.39l2.52-12.6h5.71zm-.1 4.36c.2-.57-.11-1.2-.68-1.4-.16-.05-.32-.07-.48-.05h-1.64l-.68 2.91h1.55c.9.01 1.7-.59 1.93-1.46zm-22.28-1.45c2.13-.1 4.55.77 4.07 3.39l-1.36 6.3h-3.1l.19-1.07c-1.65 1.74-5.81 1.65-5.13-2.23.48-2.32 2.81-3 6.2-3 .19-1.07-.48-1.26-1.65-1.26-1.03.09-2.03.32-3 .68l.29-2.23c1.14-.33 2.31-.53 3.49-.58zm.29 6.49c0-.29.1-.68.19-.58h-.77c-.58 0-1.45 0-1.84.58-.48.77.1 1.16.78 1.16.77-.09 1.45-.38 1.64-1.16zm5.04-6.49h3.1l.48 5.43 3.1-5.43h3.2l-7.37 13.56h-3.49l2.23-4.07-1.25-9.49zm-12.98-2.9c1.65 0 3.68 2.13 3.1 4.94-.41 2.27-2.44 3.89-4.75 3.78h-2.42l-.87 3.88h-3.39l2.52-12.6h5.81zm-.1 4.36c.2-.57-.11-1.2-.68-1.4-.16-.05-.32-.07-.48-.05h-1.64l-.68 2.91h1.55c.9 0 1.69-.6 1.93-1.46zm48.44-2.33v-1.36h-.48v-.19h1.26v.19h-.48v1.36h-.3zm.97 0v-1.55h.29l.39 1.07c.01.07.05.14.1.19 0-.1 0-.1.1-.29l.39-1.07h.29v1.55h-.2v-1.36l-.48 1.36h-.29l-.48-1.36v1.36h-.1l-.01.1zm-113.34 17.46c-.03.45.32.83.76.85.45.03.83-.31.85-.76.03-.44-.32-.83-.76-.85h-.02c-.44-.02-.81.32-.83.76zm2.16-1.33v2.67h-.58v-.33c-.2.26-.51.4-.84.39-.77 0-1.4-.63-1.4-1.4 0-.77.63-1.4 1.4-1.4.33-.01.64.13.84.39v-.32h.58zm19.59 1.33c-.03.45.31.83.76.85.45.03.83-.31.85-.76.03-.45-.31-.83-.76-.85h-.02c-.44-.02-.81.32-.83.76zm2.16-2.4v3.74h-.58v-.33c-.2.26-.51.4-.84.39-.77 0-1.4-.63-1.4-1.4 0-.77.63-1.4 1.4-1.4.33-.01.64.13.84.39v-1.39h.58zm-14.56 1.52c-.37-.01-.69.27-.71.65h1.38c0-.37-.3-.66-.67-.65zm.01-.52c.71 0 1.28.58 1.27 1.29 0 .04 0 .08-.01.11 0 .08-.01.15-.01.22h-1.98c.05.4.4.69.8.65.28 0 .56-.1.78-.28l.28.43c-.31.25-.7.39-1.09.37-.77.01-1.41-.61-1.42-1.38-.01-.76.61-1.4 1.38-1.41zm7 1.4c-.03.44.32.83.76.85.44.03.83-.31.85-.76.03-.44-.32-.83-.76-.85h-.02c-.43-.02-.8.32-.83.76zm2.16-1.33v2.67h-.58v-.32c-.2.26-.51.4-.84.39-.77 0-1.4-.63-1.4-1.4 0-.77.63-1.4 1.4-1.4.33-.01.64.13.84.39v-.32h.58zm-5.43 1.33c-.03-.74.55-1.37 1.29-1.4h.13c.35-.02.69.1.96.32l-.28.47c-.2-.15-.45-.24-.7-.24-.47.02-.84.42-.81.9.02.44.37.79.81.81.25 0 .5-.09.7-.24l.28.47c-.27.22-.61.33-.96.32-.74.04-1.38-.52-1.42-1.27v-.14zm7.48-1.4c.14 0 .28.03.41.07l-.18.55c-.12-.05-.24-.07-.36-.07-.38 0-.57.24-.57.69v1.5h-.58v-2.67h.58v.32c.14-.25.41-.4.7-.39zm-15.55.28-.25.47c-.25-.15-.54-.22-.83-.23-.32 0-.51.12-.51.31 0 .18.2.23.45.26l.27.04c.58.08.93.33.93.8 0 .51-.45.87-1.22.87-.41.01-.82-.11-1.15-.35l.27-.45c.26.19.57.29.89.28.4 0 .61-.12.61-.32 0-.15-.15-.23-.47-.28l-.27-.04c-.6-.08-.92-.35-.92-.79 0-.53.43-.85 1.11-.85.39-.01.76.09 1.09.28zm7.48-.28c.14 0 .28.03.41.07l-.18.55c-.12-.05-.24-.07-.36-.07-.38 0-.57.24-.57.69v1.49h-.58v-2.67h.57v.32c.16-.24.43-.39.71-.38zm-4.94.07v.53h-.95v1.2c0 .27.09.45.38.45.18-.01.36-.06.51-.15l.17.5c-.22.14-.47.21-.73.21-.69 0-.93-.37-.93-.99v-1.21h-.54v-.53h.54v-.81h.59v.81l.96-.01zm-8.67 2.67h-.59v-1.49c0-.45-.19-.7-.58-.7-.35-.02-.64.25-.66.6v1.59h-.59v-1.49c0-.45-.2-.7-.58-.7-.34-.02-.64.24-.66.59 0 .04 0 .08.01.12v1.48h-.58v-2.67h.58v.33c.17-.26.47-.42.78-.4.36-.02.7.17.88.47.2-.32.56-.5.94-.47.55-.03 1.02.39 1.05.93v1.81zm11.2-25.2c-.08-.06-.11-.11-.1-.15 4.66-3.08 10.93-1.8 14.01 2.86s1.8 10.93-2.86 14.01c-3.38 2.23-7.77 2.23-11.15 0 .02-.04.05-.07.09-.1.39-.32.76-.68 1.09-1.06.9-1.01 1.6-2.18 2.08-3.44.32-.83.53-1.7.63-2.59.22-1.96-.1-3.94-.91-5.74-.66-1.47-1.64-2.76-2.88-3.79zm-4.61 8.27c0-3.1 1.42-6.04 3.86-7.96.06 0 .12.02.16.07 1.15.94 2.09 2.12 2.74 3.46.42.85.71 1.76.87 2.7.11.63.16 1.26.15 1.9-.05 3-1.43 5.83-3.75 7.74-.04.04-.08.06-.13.07-2.47-1.92-3.9-4.87-3.9-7.98zm-12.42-.74c.42-5.58 5.29-9.75 10.87-9.33 1.72.13 3.38.7 4.82 1.65.01.04-.03.08-.1.13-.18.15-.36.31-.53.47-2.06 1.99-3.25 4.71-3.33 7.58-.02.85.06 1.69.24 2.52.17.79.42 1.55.75 2.29.67 1.47 1.66 2.77 2.89 3.8.03.02.05.05.07.08-4.67 3.08-10.95 1.79-14.03-2.88-1.09-1.65-1.67-3.58-1.67-5.56 0-.23.01-.46.02-.69v-.06zm-75.81 14.49c-.61 0-1.1-.49-1.1-1.1v-6.68c0-.61.49-1.1 1.1-1.1h6.42c.31 0 .61.13.82.37l1.16 1.29 1.21-1.3c.21-.23.5-.35.81-.35h5.1c.86-.04 1.72.17 2.46.61.18-.37.56-.61.97-.61h3.69c.84-.06 1.68.09 2.44.44.08.05.13.11.21.16.18-.37.56-.6.97-.61h5.33c.4 0 .76.22.95.58.63-.4 1.36-.6 2.1-.58h3.2c.46 0 .88.3 1.03.74.66-.51 1.47-.77 2.3-.74h3.2c.61 0 1.1.49 1.1 1.1v1.42c0 .37-.19.72-.5.93.01.01.02.02.04.03.56.59.85 1.38.8 2.19 0 2.01-1.35 3.21-3.61 3.21h-3.13c-.44 0-.84-.26-1.01-.67-.71.47-1.55.7-2.4.67h-3.11c-.17 0-.33-.04-.48-.12-.15.08-.31.12-.48.12h-5.33c-.17 0-.34-.05-.49-.12-.15.08-.32.12-.49.12h-1.6c-.61 0-1.1-.49-1.1-1.1V21.409c-.08 0-.18-.01-.33-.01h-.6v1.34c0 .61-.49 1.1-1.1 1.1h-1.6c-.61 0-1.1-.49-1.1-1.1v-1.7c-.74.4-1.58.6-2.43.56h-.89v1.14c0 .61-.49 1.1-1.1 1.1h-3.1c-.32.01-.63-.13-.85-.37l-1.16-1.3-1.22 1.32c-.21.23-.5.35-.81.35h-6.29zm26.26-1.1h5.33v-1.39l-3.74-.01v-1.32h3.65v-1.36h-3.65v-1.22h3.74v-1.38h-5.33v6.68zm-4-2.44c.58 0 .94.06 1.17.29.3.31.26.91.26 1.31v.84h1.6v-1.33c.05-.42-.04-.85-.27-1.22-.2-.26-.47-.45-.78-.56.71-.31 1.15-1.01 1.13-1.78.04-.61-.28-1.19-.82-1.48-.6-.26-1.26-.37-1.92-.31h-3.69v6.68h1.6v-2.44h1.72zm-11.93 2.43h3.1v-2.24h1.99c1.4 0 2.78-.38 2.78-2.23s-1.42-2.2-2.69-2.2h-5.1l-2.03 2.19-1.97-2.19h-6.41v6.68h6.32l2.04-2.21 1.97 2.2zm28.74 0h3.11c1.6.01 2.5-.66 2.5-2.1.04-.52-.13-1.03-.48-1.42-.52-.4-1.17-.6-1.82-.54l-.86-.02c-.21.01-.42-.02-.62-.08-.29-.12-.42-.45-.31-.73.04-.1.11-.19.2-.25.2-.11.42-.15.64-.12h2.93v-1.42h-3.2c-1.68 0-2.28 1.02-2.28 1.99 0 2.11 1.87 2.02 3.36 2.06.2-.02.4.03.57.15.13.11.2.27.19.44 0 .17-.07.32-.19.44-.19.14-.42.19-.65.17h-3.1l.01 1.43zm-6.52 0h3.11c1.6.01 2.5-.66 2.5-2.1.05-.52-.13-1.03-.48-1.42-.52-.4-1.17-.59-1.82-.54l-.86-.02c-.21.01-.42-.02-.62-.08-.29-.12-.42-.44-.31-.73.04-.1.11-.19.2-.25.2-.11.42-.15.64-.12h2.93v-1.42h-3.2c-1.67 0-2.28 1.02-2.28 1.99 0 2.11 1.87 2.02 3.36 2.06.2-.02.4.03.57.15.13.11.2.27.19.44 0 .17-.07.32-.19.44-.19.13-.42.19-.65.17h-3.1l.01 1.43zm-23.16-3.32 2.45-2.63v5.35l-2.45-2.72zm-7.8 1.94v-1.33h3.5v-1.36h-3.5v-1.21h4l1.74 1.94-1.82 1.96h-3.92zm11.84-2.21v-1.7h2.08c.58 0 .97.23.97.82s-.38.88-1 .88h-2.05zm7.12-.2v-1.5h1.97c.26-.02.52.02.76.12.22.12.35.35.33.6.01.26-.11.5-.33.64-.25.11-.52.16-.79.14h-1.94zm-21.4-6.59c-.44 0-.83-.26-1.01-.66l-.21-.47v.03c0 .61-.49 1.1-1.1 1.1h-3.25c-.45 0-.85-.27-1.02-.68l-.33-.81h-1.85l-.34.81c-.17.41-.57.68-1.02.68h-1.74c-.61 0-1.1-.49-1.1-1.1 0-.15.03-.3.09-.43l2.86-6.68c.17-.41.57-.67 1.01-.67h2.37c.44 0 .84.26 1.01.67l.6 1.4v-.97c0-.61.49-1.1 1.1-1.1h2.6c.43 0 .82.25 1 .64l1.04 2.27.95-2.23c.17-.41.57-.67 1.01-.67h2.66c.21.01.42.08.6.2.17-.12.38-.19.59-.2h5.33c.2 0 .39.06.55.17.17-.11.36-.17.56-.17h3.67c.86-.07 1.71.09 2.48.47.07.05.14.1.2.16.18-.38.56-.62.98-.62h1.63c.54 0 .99.4 1.07.94.85-.67 1.92-1.01 3-.94h1.54c.24 0 .47.08.66.22.19-.14.42-.22.66-.22h2.39c.44 0 .84.26 1.01.67l.59 1.37v-.94c0-.61.49-1.1 1.1-1.1h2.43c.39 0 .74.2.94.53l.76 1.26v-.69c0-.61.49-1.1 1.1-1.1h1.63c.61 0 1.1.49 1.1 1.1v6.68c0 .61-.49 1.1-1.1 1.1h-2.26c-.39 0-.74-.2-.94-.53l-.98-1.62v1.05c0 .61-.49 1.1-1.1 1.1h-3.24c-.45 0-.85-.27-1.02-.68l-.34-.81h-1.84l-.33.8c-.17.42-.57.69-1.02.69h-1.87c-1.03.04-2.05-.28-2.89-.89-.1.51-.54.88-1.06.89h-1.63c-.17 0-.35-.05-.5-.13-.15.08-.32.13-.49.13h-1.61c-.61 0-1.1-.49-1.1-1.09l-.01-.84v-.49c-.07 0-.17-.01-.31-.01h-.61v1.33c0 .61-.49 1.1-1.1 1.1h-1.6c-.2 0-.39-.06-.55-.17-.16.11-.36.17-.55.17h-5.34c-.21-.01-.42-.08-.59-.2-.17.12-.38.19-.59.2h-1.63c-.61 0-1.1-.49-1.1-1.1v-.03l-.21.47c-.18.4-.57.66-1.01.66l-1.38-.02zm38.57-1.1h2.26v-6.68h-1.63v4.65l-2.8-4.65h-2.43v6.32l-2.7-6.32h-2.39l-2.25 5.25h-.71c-.4.03-.8-.09-1.11-.35-.33-.45-.49-1.01-.44-1.57-.04-.54.12-1.08.46-1.51.33-.31.78-.45 1.23-.4h1.51v-1.43h-1.54c-.88-.08-1.76.2-2.42.78-.62.72-.93 1.66-.85 2.61-.08.93.23 1.86.86 2.55.65.53 1.47.79 2.31.74h1.87l.6-1.49h3.32l.62 1.49h3.25v-5.01l2.98 5.02zm-18.26 0h1.63v-6.68h-1.63v6.68zm-7.33 0h1.6v-2.43h1.71c.41-.06.83.04 1.16.28.23.39.32.85.25 1.3l.01.84h1.61v-1.31c.05-.43-.04-.86-.27-1.22-.21-.25-.48-.45-.79-.56.7-.31 1.15-1.01 1.12-1.78.04-.61-.27-1.19-.81-1.48-.6-.28-1.27-.39-1.93-.32h-3.67l.01 6.68zm-6.44 0h5.33v-1.38h-3.73v-1.34h3.65v-1.37h-3.65v-1.2h3.73v-1.4h-5.33v6.69zm-2.82 0h1.64v-6.68h-2.66l-1.92 4.53-2.09-4.53h-2.6v6.32l-2.72-6.32h-2.37l-2.86 6.68h1.73l.62-1.49h3.32l.61 1.49h3.25v-5.23l2.32 5.23h1.4l2.32-5.23.01 5.23zm21.86-4.07c-.1.23-.14.48-.13.72-.02.27.02.53.13.78.1.02.21.03.31.03l.69-1.62h-.55c-.36.01-.4.05-.45.09zm3.35 1.18 1.1-2.66 1.1 2.66h-2.2zm-37.87 0 1.08-2.66 1.09 2.66h-2.17zm23.51-.92v-1.48h1.97c.26-.02.52.02.76.12.22.11.35.34.33.59.02.26-.11.5-.33.63-.25.12-.52.16-.79.14h-1.94zm-62.47 5.69h-.84c-.03 0-.07 0-.1.01-.01 0-.02.01-.02.02-.03-.02-.07-.03-.11-.03h-.98c-.04-.01-.07 0-.1.02l-.01-.01c-.03-.01-.07-.02-.1-.01h-.36c-.08 0-.09-.01-.06-.09.08-.21.15-.41.22-.62.01-.03.02-.06.02-.09v-.01c.03-.02.04-.05.05-.08.12-.34.25-.69.38-1.04.01-.03.02-.05 0-.08.03 0 .04-.03.05-.06.21-.58.43-1.17.63-1.76.01-.02.02-.05.01-.08.04-.01.04-.04.05-.07.17-.46.33-.91.5-1.37.01-.02.01-.03.01-.05.01.02.01.04.01.05.02.11.04.23.08.34v.01c-.01.02-.01.05 0 .07.01.06.02.13.04.19l.84 4.02c.05.24.09.48.16.72h.01c-.07-.04-.16-.04-.24 0-.01-.01-.02-.01-.03-.02-.03-.01-.07-.01-.1-.01m4.94 5.15c-.14-.64-.27-1.28-.4-1.93-.1-.46-.19-.92-.29-1.38v-.01l-1.24-5.96c-.36-1.73-.72-3.45-1.08-5.18-.01-.06-.03-.08-.09-.08h-3.15c-.05-.01-.1 0-.15.01-.27.01-.53.1-.75.24-.03.01-.05.03-.08.04-.33.23-.57.56-.69.93l-.74 1.74-.09.21-.38.93c-.05.11-.09.21-.14.32l-.46 1.11c-.03.04-.05.08-.06.13l-.54 1.3c-.02.06-.05.11-.07.17l-.39.94c-.08.19-.17.39-.25.58l-.5 1.2c-.04.08-.07.16-.11.24l-.48 1.16c-.21.48-.41.95-.6 1.43l-.02.02-.75 1.8c-.02.03-.03.06-.03.09h3.85c.08.02.12-.02.15-.1.09-.26.19-.52.28-.78.1-.28.2-.56.3-.85.05-.13.1-.25.14-.38.01-.05.06-.08.11-.07h.43c.37.01.75.01 1.12 0 .39.01.77.01 1.16 0 .4.01.79.01 1.19 0 .26 0 .52.01.77 0 .07 0 .09.02.1.08.14.68.28 1.36.42 2.05.01.04.02.05.06.05H46.661c.06 0 .06-.02.05-.07m-30.27-11.42c.08-.18.15-.36.23-.54.12-.3.24-.59.37-.89.06-.12.11-.25.16-.38.05-.09.08-.18.11-.28l.42-.99h-3.9c-.02 0-.05-.01-.07.01l-.13.34c-.08.21-.17.42-.25.63-.12.3-.23.6-.35.9-.12.31-.25.62-.37.93l-.33.84c-.21.51-.42 1.03-.61 1.55-.05.11-.09.22-.14.33l-.42 1.07-.59 1.48c-.03.06-.05.12-.07.18l-.51 1.3-.14.34c-.01-.02-.01-.04-.02-.06-.06-.33-.12-.65-.18-.98-.05-.27-.11-.55-.16-.82v-.06l-.22-1.16c-.19-1-.37-1.99-.56-2.99-.15-.8-.3-1.61-.46-2.41-.15-.84-.88-1.46-1.74-1.45H.171c-.02 0-.05-.02-.07.01-.03.12-.05.24-.08.36 0 .03 0 .05.03.06l.61.14c.01 0 .01.01.02.01.49.12.98.26 1.46.42l.45.15c.46.17.91.38 1.34.62.14.1.27.21.37.34.15.23.25.48.31.75.23.87.45 1.74.68 2.61l1.55 6.01c.26 1.01.52 2.03.79 3.04 0 .04.04.07.08.07H11.601c.03 0 .05 0 .06-.03l.15-.36c.07-.16.14-.31.2-.47.13-.32.27-.64.4-.97.01-.01.02-.03.02-.04l.57-1.36c.01-.03.03-.05.04-.07l.55-1.33.27-.63c.12-.28.24-.57.35-.85.08-.18.16-.37.24-.55.13-.31.26-.62.38-.93.03-.04.04-.08.05-.12l.06-.15.03-.06.59-1.41c.13-.31.27-.62.4-.94.13-.37.31-.79.48-1.21m6.69-3.08h-3.72c-.02 0-.06-.02-.06.03l-.05.23c0 .02-.01.03-.01.05-.11.52-.22 1.03-.33 1.55-.05.26-.11.52-.16.79 0 0-.01.01-.01.02-.11.49-.21.99-.32 1.48-.04.14-.06.28-.09.42-.05.16-.08.33-.11.5l-.31 1.45-.09.42-.23 1.11c-.01.01-.01.03-.02.04l-.27 1.29-.22 1.03c-.04.19-.08.37-.12.56l-.3 1.41c-.03.11-.05.23-.08.34l-.39 1.83c-.01.03-.02.06.04.06h3.67c.03 0 .05-.01.05-.04.01-.06.03-.12.05-.19l.21-.96.12-.57c.01-.01.01-.02.01-.04l.31-1.47.1-.44.09-.42c.02-.06.03-.12.05-.19l.28-1.33c0-.01.01-.02.01-.03.11-.53.23-1.06.34-1.59.05-.25.1-.49.15-.74.01-.01.01-.02.01-.03l.42-1.98c.07-.32.14-.65.2-.98 0-.01.01-.02.01-.03.2-.93.4-1.87.6-2.8.05-.25.11-.51.17-.78m10.87.36c-.07-.02-.15-.05-.22-.08-.39-.14-.8-.24-1.21-.33-.03-.01-.05-.02-.08-.02-.59-.12-1.18-.19-1.78-.2l-.39.01v-.01c-.22.01-.43.02-.65.04-.17.01-.34.03-.51.06-.35.04-.7.11-1.04.21-.37.09-.73.22-1.08.39-.32.14-.63.31-.91.52-.32.21-.61.47-.86.75-.08.07-.14.15-.21.24-.21.27-.39.56-.53.87l-.03.06c-.18.41-.29.85-.33 1.3-.06.54.01 1.09.2 1.6.23.55.58 1.04 1.03 1.44.33.3.69.57 1.08.79.01.01.03.02.05.03.3.18.62.35.94.51.14.07.29.14.43.21.15.09.3.17.46.26.25.14.47.31.68.5.21.18.34.43.38.71V14.199c-.03.25-.14.48-.31.67-.18.17-.38.3-.6.39-.14.06-.28.1-.42.15-.37.08-.75.12-1.13.11l-.46-.01c-.42-.03-.84-.09-1.25-.18-.19-.05-.37-.1-.56-.15l-.57-.21c-.26-.1-.51-.22-.76-.34-.02-.01-.06-.05-.07.01l-.18.87c-.01.01-.01.02-.01.04-.16.73-.31 1.46-.47 2.19-.01.03 0 .07.03.08h.01c.34.15.69.26 1.05.35.15.04.29.08.44.1.11.03.23.06.34.07.28.06.57.1.86.12.03.01.06 0 .09.01H25.521c.02.01.04.01.07.01h.09c.03.02.07 0 .1.01h.12c.02.01.04.01.06.01l.76.04v.03h.33v-.01h.03c.06.01.13.01.19 0h.23c.05.01.09 0 .14-.01H27.701c.33-.02.66-.06.99-.12.18-.03.36-.07.54-.12.37-.08.73-.19 1.07-.35.25-.1.49-.22.72-.36.03 0 .05-.02.07-.03.3-.18.58-.39.84-.62.01 0 .01-.01.02-.01.31-.28.58-.6.8-.96.01-.02.02-.03.03-.05.47-.79.68-1.7.62-2.61-.04-.82-.38-1.59-.95-2.17-.6-.59-1.29-1.08-2.05-1.44-.49-.27-1-.52-1.48-.82-.02-.02-.04-.03-.06-.05-.21-.13-.39-.3-.55-.49-.15-.19-.21-.44-.17-.68.03-.14.09-.27.16-.39.24-.29.55-.49.91-.59.25-.07.5-.11.75-.13H30.051c.02 0 .04 0 .07-.01h.24l.56.02c.03.01.06 0 .09.01h.08c.03.01.06 0 .09.01.1.02.19.03.29.04.01 0 .02.01.03.01.31.05.62.12.93.21.33.1.65.22.96.36.02.01.06.05.07-.01l.17-.83c.01-.01.01-.02.01-.04.06-.27.11-.53.17-.8.09-.44.19-.88.29-1.32.01-.05 0-.08-.05-.09" fill="#8e98a0"/>
</svg>
