<svg xmlns="http://www.w3.org/2000/svg" viewBox="0 0 172.21 59.3" xml:space="preserve">
  <path d="M33.96 11.37c-.08.32-.18.63-.33.93-.22.55-3.35 6.57-9.36 18.06 5.49-2.54 10.53-5.96 14.92-10.13 4.25-4.07 6.24-7.44 5.96-10.09-.34-3.2-4.06-4.42-11.17-3.67-4.78.61-9.43 1.93-13.82 3.91-4.62 1.9-8.93 4.46-12.83 7.58-3.49 2.89-5.12 5.44-4.89 7.66.2 1.88 1.7 2.68 4.49 2.38 2.88-.43 5.65-1.44 8.14-2.97 3.03-1.7 5.75-3.89 8.07-6.49.27-.47.54-.72.8-.75s.4.08.43.31c.08.77-.97 2.08-3.16 3.93-2.49 2.04-5.18 3.81-8.05 5.28-2.51 1.45-5.26 2.42-8.12 2.87-3.08.32-4.75-.84-5.03-3.5-.24-2.32 1.65-5.16 5.67-8.51 4.5-3.64 9.47-6.66 14.77-8.98 4.91-2.37 10.16-3.95 15.56-4.68 7.59-.8 11.57.57 11.94 4.1.32 3.06-1.98 6.94-6.92 11.65C35.9 25.09 29.97 29 23.5 31.8c-3.36 6.44-5.6 10.68-6.72 12.7-.25.52-.68.93-1.21 1.15-.45.25-.93.42-1.43.51-.34.04-.52-.03-.54-.2l6.7-12.85c-2.24.84-4.54 1.51-6.88 2-.24.03-.38-.17-.43-.59-.07-.34.15-.67.49-.74.03-.01.07-.01.1-.01 2.56-.41 5.07-1.1 7.47-2.06l10.08-19.28c.09-.28.43-.55 1.01-.8.47-.22.96-.36 1.47-.44l.35.18zm-1.48 30.77c.02.42-.15.83-.46 1.12-.31.36-.74.58-1.2.64-.35.06-.72.01-1.04-.15-.27-.19-.43-.49-.45-.82-.05-.43.15-.85.52-1.07.35-.29.77-.47 1.22-.54.87-.09 1.35.18 1.41.82zm32.8-26.68c-1.56.16-2.4-.33-2.52-1.47-.18-1.75.8-3.52 2.95-5.31 2.38-1.93 5.03-3.49 7.87-4.65-.45-1-1.33-1.75-2.39-2.02-1.41-.42-2.9-.53-4.36-.33-1.79.2-3.53.66-5.19 1.36-1.76.73-3.41 1.68-4.92 2.84-1.5 1.15-2.72 2.64-3.54 4.35-.84 1.72-1.18 3.64-.96 5.53.6 1.99 1.41 3.9 2.42 5.72 1.33 2.48 2.23 5.16 2.65 7.93.06.78.06 1.57.01 2.35 1.5-.29 2.59-.48 3.27-.55 3.87-.41 5.9.24 6.08 1.96.07.58-.11 1.15-.5 1.58-.62.63-1.31 1.18-2.07 1.64-.34-.13-.51-.27-.53-.4-.01-.15.07-.3.2-.38 1.14-.7 1.68-1.33 1.62-1.9-.12-1.14-1.76-1.55-4.91-1.22-1.12.12-2.23.3-3.33.55-.52 2.37-1.61 4.58-3.17 6.43-1.62 2.03-3.55 3.78-5.72 5.2-2.07 1.36-4.27 2.5-6.57 3.42-1.91.8-3.92 1.34-5.98 1.6-2.72.29-4.14-.24-4.29-1.59-.2-1.88 1-3.93 3.59-6.14 2.87-2.38 6.05-4.36 9.47-5.87 3.56-1.65 7.26-2.97 11.06-3.95.06-.76.06-1.53 0-2.3-.15-1.45-1.02-3.64-2.61-6.59-1.39-2.39-2.32-5.02-2.73-7.75-.23-2.22.57-4.54 2.42-6.96 1.84-2.42 4.18-4.42 6.86-5.86C61.91 1.29 64.6.4 67.39.06c4.03-.43 6.4.77 7.1 3.59 1.43-.62 2.93-1.09 4.46-1.39.43-.08.86-.1 1.3-.06.06.04.12.23.15.57.05.32-.16.63-.47.71-1.79.26-3.55.66-5.26 1.22.21 2.74-.88 5.42-2.93 7.25-1.69 1.88-3.97 3.11-6.46 3.51zM33.62 46.61c.1.98 1.31 1.34 3.63 1.1 3.77-.54 7.38-1.94 10.54-4.07 1.88-1.17 3.54-2.67 4.89-4.42 1.35-1.68 2.27-3.66 2.69-5.77-3.41.85-6.74 1.97-9.98 3.35-3.02 1.24-5.87 2.85-8.49 4.8-2.35 1.79-3.44 3.47-3.28 5.01zm31.03-33.12c.07.64.5.92 1.3.83 1.52-.16 3.25-1.22 5.21-3.18 1.95-1.96 2.84-3.98 2.66-6.07-2.45.88-4.73 2.18-6.74 3.82-1.79 1.52-2.59 3.05-2.43 4.6zm2.04 8.97c2.72-.29 5.39-.59 8.02-.9 3.79-5.06 6.46-7.67 8.02-7.84.56-.06.87.16.92.67.17 1.61-1.01 3.78-3.55 6.5l4.55-.53c3.02-.42 4.88-.67 5.56-.74.68-.07 1.03-.04 1.04.09.07.64-.42 1.03-1.45 1.17l-11.22 1.59c-2.12 2.03-4.37 3.92-6.73 5.66-2.59 4.53-3.81 7.55-3.65 9.06.08.77.71 1.1 1.89.97 1.93-.41 3.76-1.16 5.43-2.21l4.6-2.88c.06.12.1.26.1.4.02.2-.14.39-.49.56-1.2.88-2.52 1.76-3.96 2.66-3.09 1.72-5.49 2.67-7.21 2.85-.64.1-1.3.03-1.9-.21-.47-.22-.74-.47-.8-.73l-.16-.39c-.12-1.14.59-3.17 2.15-6.07 1.69-3.12 3.57-6.12 5.65-8.99-1.91.27-3.72.49-5.44.67-1.72.18-2.59.11-2.63-.23-.08-.61.34-1 1.26-1.13zm15.21-6.81c-.02-.17-.11-.24-.27-.23-.92.1-2.77 2.08-5.55 5.94l2.99-.32c2.03-2.28 2.97-4.08 2.83-5.39zm-4.35 6.99c-1.28.13-2.14.24-2.57.32-.31.48-.75 1.17-1.3 2.08-.55.91-.93 1.53-1.14 1.85 1.75-1.33 3.42-2.74 5.01-4.25zm12.19 8.15c-.17.04-.34-.06-.39-.23-.01-.03-.01-.06-.01-.09l.14-.37c.66-.65.96-1.17.92-1.58-.05-.5-.4-.72-1.04-.66-1.4.15-3.2 1.16-5.4 3.05-2.2 1.88-3.24 3.46-3.11 4.74.06.54.5.76 1.34.67 1.02-.16 1.99-.57 2.81-1.19.93-.62 1.81-1.31 2.63-2.06.36-.38.76-.72 1.19-1.02.4-.01.62.14.65.44-.18.51-.45.99-.79 1.41-.44.53-.7 1.18-.74 1.86.04.34.38.47 1.04.4 1.2-.27 2.34-.73 3.4-1.35 1.45-.74 2.86-1.56 4.22-2.46l1.81-1.22c.06.12.1.26.1.4.02.2-.14.39-.49.56-5.06 3.66-8.65 5.61-10.78 5.83-1.04.11-1.6-.27-1.7-1.15-.04-.4 0-.8.12-1.19-.71.61-1.51 1.11-2.36 1.5-1.11.63-2.33 1.05-3.59 1.22-1.08.11-1.66-.25-1.75-1.09-.21-1.98 1.21-4.18 4.27-6.6 3.06-2.41 5.7-3.74 7.94-3.98 1.32-.14 2.03.26 2.13 1.2.06.54-.28 1.15-1.01 1.84-.39.53-.94.9-1.55 1.12zm7.05 1.45c.98-.64 1.91-1.33 2.81-2.08 1.43-1.28 2.94-2.47 4.53-3.54.6-.06.92.12.96.56-.05.76-.3 1.49-.72 2.12-.52.97-1.12 1.99-1.8 3.05s-1.06 1.7-1.16 1.91c.09.03.18.04.28.02.79-.46 1.53-.99 2.22-1.59 1.34-1.04 2.74-2.14 4.19-3.3 1.45-1.16 2.31-1.83 2.57-2.01.22-.16.48-.27.76-.31.48-.02.75.19.79.63-.48.99-1.07 1.92-1.77 2.76-1.19 1.67-1.77 2.73-1.72 3.17.03.3.48.41 1.34.32 1.3-.25 2.55-.72 3.7-1.39 1.45-.74 2.86-1.56 4.22-2.46l1.81-1.21c.06.12.1.26.1.4.02.2-.14.39-.49.56-5.07 3.66-8.66 5.61-10.77 5.83-1.24.13-1.9-.21-1.98-1.02-.07-.81.13-1.62.57-2.31.46-.76.87-1.41 1.22-1.94.19-.27.37-.55.51-.85-1.72 1.3-3.75 2.86-6.11 4.67-1.23 1.07-2.57 2-4.01 2.77-.24.03-.38-.2-.43-.67-.05-.47.61-1.78 1.98-3.93.76-1.09 1.44-2.24 2.03-3.43-.01-.13-.06-.19-.14-.19l-.57.32-2.79 2.33c-.18.15-.54.41-1.07.78-.3.24-.64.43-1 .56-.14.01-.22-.05-.23-.2 0-.11.06-.25.17-.33zm21.35-15.21c2.72-.29 5.39-.59 8.02-.9 3.79-5.06 6.46-7.67 8.02-7.84.56-.06.87.16.92.67.17 1.61-1.01 3.78-3.55 6.5l4.55-.53c3.02-.42 4.88-.67 5.56-.74.68-.07 1.03-.04 1.04.09.07.64-.42 1.03-1.45 1.17l-11.22 1.59c-2.12 2.03-4.37 3.92-6.73 5.66-2.59 4.53-3.81 7.55-3.65 9.06.08.77.71 1.1 1.89.97 1.93-.41 3.76-1.16 5.43-2.21l4.6-2.88c.06.12.1.26.1.4.02.2-.14.39-.49.56-1.2.88-2.52 1.76-3.96 2.66-3.09 1.72-5.49 2.67-7.21 2.85-.64.1-1.3.03-1.9-.21-.47-.22-.74-.47-.8-.73l-.16-.39c-.12-1.14.59-3.17 2.15-6.07 1.69-3.12 3.57-6.12 5.65-8.99-1.91.27-3.72.49-5.44.67-1.72.18-2.59.1-2.63-.23-.08-.62.35-1 1.26-1.13zm15.22-6.81c-.02-.17-.11-.24-.27-.23-.92.1-2.77 2.08-5.55 5.94l2.99-.32c2.02-2.28 2.96-4.08 2.83-5.39zm-4.35 6.99c-1.28.13-2.14.24-2.57.32-.31.48-.75 1.17-1.3 2.08-.55.91-.93 1.53-1.14 1.85 1.74-1.33 3.41-2.74 5.01-4.25zm14.3 10.43c-1.27.8-2.71 1.29-4.21 1.41l-.72.08c-.92 1.11-1.99 2.09-3.18 2.91-.89.68-1.94 1.13-3.04 1.32-1.24.13-1.93-.48-2.07-1.82-.14-1.35.55-3 2.08-4.97-.22-.41-.35-.87-.38-1.34-.09-1.27.48-2.49 1.5-3.24.94-.9 2.14-1.48 3.43-1.67 2.44-.26 3.77.72 4.01 2.94.04 1.85-.59 3.66-1.77 5.09l.72-.08c1.15-.09 2.25-.47 3.21-1.1.13-.12.29-.19.46-.2.2-.02.3.03.32.15.02.12-.1.29-.36.52zm-6.36-5.2c.15-.07.31-.12.47-.15.12-.01.19.06.2.21.02.15-.18.39-.59.7-1.21.94-2.32 2.02-3.3 3.21 1.13 1.14 2.65 1.82 4.26 1.89 1.39-1.71 2.02-3.24 1.88-4.59-.04-.71-.45-1.35-1.08-1.67-.74-.36-1.56-.48-2.37-.36-.91.09-1.79.42-2.53.96-.75.54-1.09 1.07-1.04 1.59.03.42.13.83.31 1.22 1.1-1.19 2.38-2.21 3.79-3.01zm-3.94 5.16c-.54.95-.76 2.04-.64 3.13.06.61.42.87 1.05.81 1.08-.11 2.35-.93 3.8-2.44-1.53.03-3.03-.5-4.21-1.5zm9.49-.18c.98-.64 1.91-1.33 2.81-2.08 1.43-1.28 2.94-2.47 4.53-3.54.6-.06.92.12.96.56-.05.76-.3 1.49-.72 2.12-.52.97-1.12 1.99-1.8 3.05s-1.06 1.7-1.16 1.91c.09.03.18.04.28.02.79-.46 1.53-.99 2.22-1.59 1.34-1.04 2.74-2.14 4.19-3.3s2.31-1.83 2.57-2.01c.22-.16.48-.27.76-.31.48-.02.75.19.79.63-.48.99-1.07 1.92-1.77 2.76-1.2 1.67-1.77 2.73-1.73 3.17.03.3.48.41 1.34.32 1.3-.25 2.55-.72 3.7-1.39 1.45-.74 2.86-1.56 4.22-2.46l1.81-1.21c.06.12.1.26.1.4.02.2-.14.39-.49.56-5.06 3.66-8.66 5.61-10.77 5.83-1.24.13-1.9-.21-1.98-1.02-.07-.81.13-1.63.58-2.31.46-.76.87-1.41 1.22-1.94.19-.27.37-.55.51-.85-1.72 1.3-3.75 2.86-6.11 4.67-1.23 1.07-2.57 2-4.01 2.77-.24.03-.38-.2-.43-.67-.05-.47.61-1.78 1.98-3.93.76-1.09 1.44-2.24 2.03-3.43-.01-.13-.06-.19-.14-.19l-.57.32-2.78 2.33c-.19.15-.54.41-1.07.78-.3.24-.64.43-1 .56-.14.01-.22-.05-.23-.2-.01-.12.05-.25.16-.33zM4.36 59.3l-.15-.99c.36-.05 36.52-5.61 75.1-10.9 22.66-3.11 41.71-5.52 56.62-7.16 18.66-2.06 30.87-2.91 36.28-2.55l-.07 1c-5.35-.36-17.5.49-36.1 2.54-14.9 1.64-33.94 4.05-56.59 7.16C40.87 53.69 4.72 59.25 4.36 59.3z" fill="#fff"/>
</svg>
